<?xml version="1.0" encoding="utf-8"?>
<!-- Generator: Adobe Illustrator 15.1.0, SVG Export Plug-In . SVG Version: 6.00 Build 0)  -->
<!DOCTYPE svg PUBLIC "-//W3C//DTD SVG 1.1//EN" "http://www.w3.org/Graphics/SVG/1.1/DTD/svg11.dtd">
<svg version="1.1" xmlns="http://www.w3.org/2000/svg" xmlns:xlink="http://www.w3.org/1999/xlink" x="0px" y="0px" width="500px"
     height="500px" viewBox="0 0 500 500" enable-background="new 0 0 500 500" xml:space="preserve">
<g id="Ebene_3">
</g>
<g id="Ebene_1">
	<path fill="#8E8484" d="M376.713,126.815l-42.078,42.902c22.365,21.938,36.246,52.494,36.246,86.297
		c0,66.76-54.12,120.879-120.879,120.879c-66.762,0-120.882-54.119-120.882-120.879c0-33.998,14.041-64.712,36.634-86.676
		l-41.884-43.091c-33.824,32.883-54.846,78.866-54.846,129.766c0,99.952,81.026,180.976,180.977,180.976
		c99.949,0,180.976-81.023,180.976-180.976C430.977,205.405,410.195,159.658,376.713,126.815z"/>
	<path fill="#8E8484" d="M279.813,194.622c0,16.5-13.416,30-29.813,30c-16.397,0-29.813-13.5-29.813-30V73.871
		c0-16.5,13.416-30,29.813-30c16.396,0,29.813,13.5,29.813,30V194.622z"/>
	<path fill="#8E8484" d="M167.85,124.498c-11.637-11.552-30.669-11.422-42.293,0.288l-3.128,2.878l42.71,42.278l2.735-3.149
		C179.498,155.082,179.486,136.05,167.85,124.498z"/>
	<path fill="#8E8484" d="M331.73,124.498c11.637-11.552,30.669-11.422,42.293,0.288l3.128,2.878l-42.71,42.278l-2.735-3.149
		C320.082,155.082,320.094,136.05,331.73,124.498z"/>
</g>
<g id="Ebene_2" display="none">
</g>
</svg>
